<mxfile host="app.diagrams.net" agent="Mozilla/5.0 (Windows NT 10.0; Win64; x64) AppleWebKit/537.36 (KHTML, like Gecko) Chrome/134.0.0.0 Safari/537.36" version="26.1.0" pages="7">
  <diagram name="Casos de uso" id="3kVIo4eg2QqNgPROLwEW">
    <mxGraphModel dx="2391" dy="1103" grid="1" gridSize="10" guides="1" tooltips="1" connect="1" arrows="1" fold="1" page="1" pageScale="1" pageWidth="827" pageHeight="1169" math="0" shadow="0">
      <root>
        <mxCell id="0" />
        <mxCell id="1" parent="0" />
        <mxCell id="ZWJqEuKlQdRkLdHSnDZM-1" value="" style="whiteSpace=wrap;html=1;aspect=fixed;" vertex="1" parent="1">
          <mxGeometry x="154" y="280" width="520" height="520" as="geometry" />
        </mxCell>
        <mxCell id="ZWJqEuKlQdRkLdHSnDZM-2" value="Cliente" style="shape=umlActor;verticalLabelPosition=bottom;verticalAlign=top;html=1;outlineConnect=0;fillColor=#d5e8d4;strokeColor=#82b366;" vertex="1" parent="1">
          <mxGeometry x="114" y="375" width="40" height="80" as="geometry" />
        </mxCell>
        <mxCell id="ZWJqEuKlQdRkLdHSnDZM-3" value="Sistema" style="shape=umlActor;verticalLabelPosition=bottom;verticalAlign=top;html=1;outlineConnect=0;fillColor=#dae8fc;strokeColor=#6c8ebf;" vertex="1" parent="1">
          <mxGeometry x="674" y="520" width="40" height="80" as="geometry" />
        </mxCell>
        <mxCell id="ZWJqEuKlQdRkLdHSnDZM-4" value="&lt;font size=&quot;1&quot;&gt;Navegar pelo catálogo&lt;/font&gt;" style="ellipse;whiteSpace=wrap;html=1;" vertex="1" parent="1">
          <mxGeometry x="214" y="325" width="70" height="50" as="geometry" />
        </mxCell>
        <mxCell id="ZWJqEuKlQdRkLdHSnDZM-5" value="&lt;font size=&quot;1&quot;&gt;Colocar item no carrinho&lt;/font&gt;" style="ellipse;whiteSpace=wrap;html=1;" vertex="1" parent="1">
          <mxGeometry x="214" y="400" width="70" height="50" as="geometry" />
        </mxCell>
        <mxCell id="ZWJqEuKlQdRkLdHSnDZM-6" value="&lt;font size=&quot;1&quot;&gt;Finalizar compra&lt;/font&gt;" style="ellipse;whiteSpace=wrap;html=1;" vertex="1" parent="1">
          <mxGeometry x="214" y="540" width="70" height="50" as="geometry" />
        </mxCell>
        <mxCell id="ZWJqEuKlQdRkLdHSnDZM-7" value="&lt;font size=&quot;1&quot;&gt;Informar endereço&lt;/font&gt;" style="ellipse;whiteSpace=wrap;html=1;" vertex="1" parent="1">
          <mxGeometry x="214" y="470" width="70" height="50" as="geometry" />
        </mxCell>
        <mxCell id="ZWJqEuKlQdRkLdHSnDZM-8" value="&lt;font size=&quot;1&quot;&gt;Preencher dados do cartão de crédito&lt;/font&gt;" style="ellipse;whiteSpace=wrap;html=1;" vertex="1" parent="1">
          <mxGeometry x="334" y="460" width="86" height="70" as="geometry" />
        </mxCell>
        <mxCell id="ZWJqEuKlQdRkLdHSnDZM-9" value="&lt;font size=&quot;1&quot;&gt;Verificar dados do cartão&lt;/font&gt;" style="ellipse;whiteSpace=wrap;html=1;" vertex="1" parent="1">
          <mxGeometry x="464" y="455" width="70" height="50" as="geometry" />
        </mxCell>
        <mxCell id="ZWJqEuKlQdRkLdHSnDZM-10" value="&lt;font size=&quot;1&quot;&gt;Faturar compra&lt;/font&gt;" style="ellipse;whiteSpace=wrap;html=1;" vertex="1" parent="1">
          <mxGeometry x="464" y="540" width="70" height="50" as="geometry" />
        </mxCell>
        <mxCell id="ZWJqEuKlQdRkLdHSnDZM-11" value="&lt;font size=&quot;1&quot;&gt;Enviar e-mail&lt;/font&gt;" style="ellipse;whiteSpace=wrap;html=1;" vertex="1" parent="1">
          <mxGeometry x="464" y="620" width="70" height="50" as="geometry" />
        </mxCell>
        <mxCell id="ZWJqEuKlQdRkLdHSnDZM-12" value="" style="endArrow=classic;html=1;rounded=0;entryX=1.031;entryY=0.397;entryDx=0;entryDy=0;entryPerimeter=0;" edge="1" parent="1" target="ZWJqEuKlQdRkLdHSnDZM-11">
          <mxGeometry width="50" height="50" relative="1" as="geometry">
            <mxPoint x="674" y="590" as="sourcePoint" />
            <mxPoint x="544" y="590" as="targetPoint" />
            <Array as="points">
              <mxPoint x="664" y="590" />
            </Array>
          </mxGeometry>
        </mxCell>
        <mxCell id="ZWJqEuKlQdRkLdHSnDZM-13" value="" style="endArrow=classic;html=1;rounded=0;entryX=1;entryY=0.5;entryDx=0;entryDy=0;" edge="1" parent="1" target="ZWJqEuKlQdRkLdHSnDZM-10">
          <mxGeometry width="50" height="50" relative="1" as="geometry">
            <mxPoint x="664" y="565" as="sourcePoint" />
            <mxPoint x="544" y="530" as="targetPoint" />
            <Array as="points">
              <mxPoint x="604" y="565" />
            </Array>
          </mxGeometry>
        </mxCell>
        <mxCell id="ZWJqEuKlQdRkLdHSnDZM-14" value="" style="endArrow=classic;html=1;rounded=0;entryX=1;entryY=0.5;entryDx=0;entryDy=0;" edge="1" parent="1" target="ZWJqEuKlQdRkLdHSnDZM-9">
          <mxGeometry width="50" height="50" relative="1" as="geometry">
            <mxPoint x="664" y="540" as="sourcePoint" />
            <mxPoint x="544" y="460" as="targetPoint" />
            <Array as="points" />
          </mxGeometry>
        </mxCell>
        <mxCell id="ZWJqEuKlQdRkLdHSnDZM-15" value="" style="endArrow=classic;html=1;rounded=0;entryX=0;entryY=0.5;entryDx=0;entryDy=0;" edge="1" parent="1">
          <mxGeometry width="50" height="50" relative="1" as="geometry">
            <mxPoint x="415" y="480" as="sourcePoint" />
            <mxPoint x="464.9999999999977" y="480" as="targetPoint" />
          </mxGeometry>
        </mxCell>
        <mxCell id="ZWJqEuKlQdRkLdHSnDZM-16" value="" style="endArrow=classic;html=1;rounded=0;" edge="1" parent="1" target="ZWJqEuKlQdRkLdHSnDZM-4">
          <mxGeometry width="50" height="50" relative="1" as="geometry">
            <mxPoint x="154" y="420" as="sourcePoint" />
            <mxPoint x="444" y="470" as="targetPoint" />
          </mxGeometry>
        </mxCell>
        <mxCell id="ZWJqEuKlQdRkLdHSnDZM-17" value="" style="endArrow=classic;html=1;rounded=0;entryX=0;entryY=0.4;entryDx=0;entryDy=0;entryPerimeter=0;" edge="1" parent="1" target="ZWJqEuKlQdRkLdHSnDZM-5">
          <mxGeometry width="50" height="50" relative="1" as="geometry">
            <mxPoint x="154" y="420" as="sourcePoint" />
            <mxPoint x="204" y="420" as="targetPoint" />
          </mxGeometry>
        </mxCell>
        <mxCell id="ZWJqEuKlQdRkLdHSnDZM-18" value="" style="endArrow=classic;html=1;rounded=0;entryX=0.5;entryY=1;entryDx=0;entryDy=0;exitX=0.5;exitY=0;exitDx=0;exitDy=0;" edge="1" parent="1" source="ZWJqEuKlQdRkLdHSnDZM-6" target="ZWJqEuKlQdRkLdHSnDZM-7">
          <mxGeometry width="50" height="50" relative="1" as="geometry">
            <mxPoint x="154" y="420" as="sourcePoint" />
            <mxPoint x="214" y="430" as="targetPoint" />
          </mxGeometry>
        </mxCell>
        <mxCell id="ZWJqEuKlQdRkLdHSnDZM-19" value="" style="endArrow=classic;html=1;rounded=0;entryX=0;entryY=0.5;entryDx=0;entryDy=0;" edge="1" parent="1" target="ZWJqEuKlQdRkLdHSnDZM-6">
          <mxGeometry width="50" height="50" relative="1" as="geometry">
            <mxPoint x="154" y="420" as="sourcePoint" />
            <mxPoint x="184" y="490" as="targetPoint" />
          </mxGeometry>
        </mxCell>
        <mxCell id="ZWJqEuKlQdRkLdHSnDZM-20" value="" style="endArrow=classic;html=1;rounded=0;exitX=1;exitY=0;exitDx=0;exitDy=0;entryX=-0.015;entryY=0.561;entryDx=0;entryDy=0;entryPerimeter=0;" edge="1" parent="1" source="ZWJqEuKlQdRkLdHSnDZM-6" target="ZWJqEuKlQdRkLdHSnDZM-8">
          <mxGeometry width="50" height="50" relative="1" as="geometry">
            <mxPoint x="272" y="550" as="sourcePoint" />
            <mxPoint x="322" y="500" as="targetPoint" />
            <Array as="points" />
          </mxGeometry>
        </mxCell>
        <mxCell id="ZWJqEuKlQdRkLdHSnDZM-21" value="" style="endArrow=classic;html=1;rounded=0;exitX=1;exitY=0.5;exitDx=0;exitDy=0;entryX=0;entryY=0.5;entryDx=0;entryDy=0;" edge="1" parent="1" source="ZWJqEuKlQdRkLdHSnDZM-6" target="ZWJqEuKlQdRkLdHSnDZM-10">
          <mxGeometry width="50" height="50" relative="1" as="geometry">
            <mxPoint x="383" y="590" as="sourcePoint" />
            <mxPoint x="433" y="540" as="targetPoint" />
            <Array as="points" />
          </mxGeometry>
        </mxCell>
      </root>
    </mxGraphModel>
  </diagram>
  <diagram id="XcXWkTseDFi1jz7Rpbh6" name="Classes">
    <mxGraphModel dx="1674" dy="772" grid="1" gridSize="10" guides="1" tooltips="1" connect="1" arrows="1" fold="1" page="1" pageScale="1" pageWidth="827" pageHeight="1169" math="0" shadow="0">
      <root>
        <mxCell id="0" />
        <mxCell id="1" parent="0" />
        <mxCell id="19qytxaOB_nF2SuPqsgH-1" value="Paciente" style="swimlane;fontStyle=0;childLayout=stackLayout;horizontal=1;startSize=30;horizontalStack=0;resizeParent=1;resizeParentMax=0;resizeLast=0;collapsible=1;marginBottom=0;whiteSpace=wrap;html=1;" vertex="1" parent="1">
          <mxGeometry x="160" y="330" width="140" height="260" as="geometry" />
        </mxCell>
        <mxCell id="19qytxaOB_nF2SuPqsgH-2" value="+ IdPaciente" style="text;strokeColor=none;fillColor=none;align=left;verticalAlign=middle;spacingLeft=4;spacingRight=4;overflow=hidden;points=[[0,0.5],[1,0.5]];portConstraint=eastwest;rotatable=0;whiteSpace=wrap;html=1;" vertex="1" parent="19qytxaOB_nF2SuPqsgH-1">
          <mxGeometry y="30" width="140" height="30" as="geometry" />
        </mxCell>
        <mxCell id="19qytxaOB_nF2SuPqsgH-3" value="+ Nome" style="text;strokeColor=none;fillColor=none;align=left;verticalAlign=middle;spacingLeft=4;spacingRight=4;overflow=hidden;points=[[0,0.5],[1,0.5]];portConstraint=eastwest;rotatable=0;whiteSpace=wrap;html=1;" vertex="1" parent="19qytxaOB_nF2SuPqsgH-1">
          <mxGeometry y="60" width="140" height="30" as="geometry" />
        </mxCell>
        <mxCell id="19qytxaOB_nF2SuPqsgH-4" value="+DataCadastro" style="text;strokeColor=none;fillColor=none;align=left;verticalAlign=middle;spacingLeft=4;spacingRight=4;overflow=hidden;points=[[0,0.5],[1,0.5]];portConstraint=eastwest;rotatable=0;whiteSpace=wrap;html=1;" vertex="1" parent="19qytxaOB_nF2SuPqsgH-1">
          <mxGeometry y="90" width="140" height="30" as="geometry" />
        </mxCell>
        <mxCell id="19qytxaOB_nF2SuPqsgH-5" value="+DataNascimento" style="text;strokeColor=none;fillColor=none;align=left;verticalAlign=middle;spacingLeft=4;spacingRight=4;overflow=hidden;points=[[0,0.5],[1,0.5]];portConstraint=eastwest;rotatable=0;whiteSpace=wrap;html=1;" vertex="1" parent="19qytxaOB_nF2SuPqsgH-1">
          <mxGeometry y="120" width="140" height="30" as="geometry" />
        </mxCell>
        <mxCell id="19qytxaOB_nF2SuPqsgH-6" value="+Sexo" style="text;strokeColor=none;fillColor=none;align=left;verticalAlign=middle;spacingLeft=4;spacingRight=4;overflow=hidden;points=[[0,0.5],[1,0.5]];portConstraint=eastwest;rotatable=0;whiteSpace=wrap;html=1;" vertex="1" parent="19qytxaOB_nF2SuPqsgH-1">
          <mxGeometry y="150" width="140" height="30" as="geometry" />
        </mxCell>
        <mxCell id="19qytxaOB_nF2SuPqsgH-7" value="+Sintoma" style="text;strokeColor=none;fillColor=none;align=left;verticalAlign=middle;spacingLeft=4;spacingRight=4;overflow=hidden;points=[[0,0.5],[1,0.5]];portConstraint=eastwest;rotatable=0;whiteSpace=wrap;html=1;" vertex="1" parent="19qytxaOB_nF2SuPqsgH-1">
          <mxGeometry y="180" width="140" height="30" as="geometry" />
        </mxCell>
        <mxCell id="19qytxaOB_nF2SuPqsgH-8" value="+setDados()&lt;div&gt;+getDados()&lt;/div&gt;&lt;div&gt;+calcIdade&lt;/div&gt;" style="text;strokeColor=default;fillColor=none;align=left;verticalAlign=middle;spacingLeft=4;spacingRight=4;overflow=hidden;points=[[0,0.5],[1,0.5]];portConstraint=eastwest;rotatable=0;whiteSpace=wrap;html=1;" vertex="1" parent="19qytxaOB_nF2SuPqsgH-1">
          <mxGeometry y="210" width="140" height="50" as="geometry" />
        </mxCell>
        <mxCell id="19qytxaOB_nF2SuPqsgH-9" value="" style="rhombus;whiteSpace=wrap;html=1;fillColor=#FFFFFF;" vertex="1" parent="1">
          <mxGeometry x="300" y="420" width="46" height="20" as="geometry" />
        </mxCell>
        <mxCell id="19qytxaOB_nF2SuPqsgH-10" value="" style="endArrow=none;html=1;rounded=0;exitX=1;exitY=0.5;exitDx=0;exitDy=0;" edge="1" parent="1" source="19qytxaOB_nF2SuPqsgH-9">
          <mxGeometry width="50" height="50" relative="1" as="geometry">
            <mxPoint x="380" y="440" as="sourcePoint" />
            <mxPoint x="450" y="430" as="targetPoint" />
          </mxGeometry>
        </mxCell>
        <mxCell id="19qytxaOB_nF2SuPqsgH-11" value="Sessão" style="swimlane;fontStyle=1;align=center;verticalAlign=top;childLayout=stackLayout;horizontal=1;startSize=26;horizontalStack=0;resizeParent=1;resizeParentMax=0;resizeLast=0;collapsible=1;marginBottom=0;whiteSpace=wrap;html=1;" vertex="1" parent="1">
          <mxGeometry x="310" y="595" width="160" height="132" as="geometry" />
        </mxCell>
        <mxCell id="19qytxaOB_nF2SuPqsgH-12" value="+DataSeccao&lt;div&gt;+Rendimento&lt;/div&gt;&lt;div&gt;+NivelDor&lt;/div&gt;&lt;div&gt;+NívelSistema&lt;/div&gt;" style="text;strokeColor=none;fillColor=none;align=left;verticalAlign=top;spacingLeft=4;spacingRight=4;overflow=hidden;rotatable=0;points=[[0,0.5],[1,0.5]];portConstraint=eastwest;whiteSpace=wrap;html=1;" vertex="1" parent="19qytxaOB_nF2SuPqsgH-11">
          <mxGeometry y="26" width="160" height="94" as="geometry" />
        </mxCell>
        <mxCell id="19qytxaOB_nF2SuPqsgH-13" value="" style="line;strokeWidth=1;fillColor=none;align=left;verticalAlign=middle;spacingTop=-1;spacingLeft=3;spacingRight=3;rotatable=0;labelPosition=right;points=[];portConstraint=eastwest;strokeColor=inherit;" vertex="1" parent="19qytxaOB_nF2SuPqsgH-11">
          <mxGeometry y="120" width="160" height="12" as="geometry" />
        </mxCell>
        <mxCell id="19qytxaOB_nF2SuPqsgH-14" value="" style="group" vertex="1" connectable="0" parent="1">
          <mxGeometry x="550" y="620" width="140" height="60" as="geometry" />
        </mxCell>
        <mxCell id="19qytxaOB_nF2SuPqsgH-15" value="&lt;div style=&quot;text-align: left;&quot;&gt;&lt;span style=&quot;background-color: transparent; color: light-dark(rgb(0, 0, 0), rgb(255, 255, 255));&quot;&gt;&amp;nbsp; &amp;nbsp; &amp;nbsp; &amp;lt;&amp;lt;signal&amp;gt;&amp;gt;&lt;/span&gt;&lt;/div&gt;&lt;div style=&quot;text-align: left;&quot;&gt;&lt;span style=&quot;background-color: transparent; color: light-dark(rgb(0, 0, 0), rgb(255, 255, 255));&quot;&gt;&lt;b&gt;Terapia aumentada&lt;/b&gt;&lt;/span&gt;&lt;/div&gt;" style="html=1;whiteSpace=wrap;" vertex="1" parent="19qytxaOB_nF2SuPqsgH-14">
          <mxGeometry width="140" height="40" as="geometry" />
        </mxCell>
        <mxCell id="19qytxaOB_nF2SuPqsgH-16" value="&lt;div style=&quot;text-align: left;&quot;&gt;&lt;br&gt;&lt;/div&gt;" style="html=1;whiteSpace=wrap;" vertex="1" parent="19qytxaOB_nF2SuPqsgH-14">
          <mxGeometry y="40" width="140" height="10" as="geometry" />
        </mxCell>
        <mxCell id="19qytxaOB_nF2SuPqsgH-17" value="&lt;div style=&quot;text-align: left;&quot;&gt;&lt;br&gt;&lt;/div&gt;" style="html=1;whiteSpace=wrap;" vertex="1" parent="19qytxaOB_nF2SuPqsgH-14">
          <mxGeometry y="50" width="140" height="10" as="geometry" />
        </mxCell>
        <mxCell id="19qytxaOB_nF2SuPqsgH-18" value="" style="group" vertex="1" connectable="0" parent="1">
          <mxGeometry x="670" y="390" width="140" height="60" as="geometry" />
        </mxCell>
        <mxCell id="19qytxaOB_nF2SuPqsgH-19" value="&lt;p style=&quot;margin:0px;margin-top:4px;text-align:center;&quot;&gt;&lt;b&gt;Avaliação&lt;/b&gt;&lt;/p&gt;" style="verticalAlign=top;align=left;overflow=fill;html=1;whiteSpace=wrap;" vertex="1" parent="19qytxaOB_nF2SuPqsgH-18">
          <mxGeometry width="140" height="20" as="geometry" />
        </mxCell>
        <mxCell id="19qytxaOB_nF2SuPqsgH-20" value="&lt;div style=&quot;text-align: left;&quot;&gt;&lt;br&gt;&lt;/div&gt;" style="html=1;whiteSpace=wrap;" vertex="1" parent="19qytxaOB_nF2SuPqsgH-18">
          <mxGeometry y="20" width="140" height="10" as="geometry" />
        </mxCell>
        <mxCell id="19qytxaOB_nF2SuPqsgH-21" value="&lt;div style=&quot;text-align: left;&quot;&gt;&lt;br&gt;&lt;/div&gt;" style="html=1;whiteSpace=wrap;" vertex="1" parent="19qytxaOB_nF2SuPqsgH-18">
          <mxGeometry y="30" width="140" height="30" as="geometry" />
        </mxCell>
        <mxCell id="19qytxaOB_nF2SuPqsgH-22" value="" style="endArrow=none;html=1;rounded=0;exitX=1;exitY=0.5;exitDx=0;exitDy=0;" edge="1" parent="19qytxaOB_nF2SuPqsgH-18">
          <mxGeometry width="50" height="50" relative="1" as="geometry">
            <mxPoint x="-35" y="20" as="sourcePoint" />
            <mxPoint x="69" y="20" as="targetPoint" />
          </mxGeometry>
        </mxCell>
        <mxCell id="19qytxaOB_nF2SuPqsgH-23" value="Terapia" style="swimlane;fontStyle=0;childLayout=stackLayout;horizontal=1;startSize=30;horizontalStack=0;resizeParent=1;resizeParentMax=0;resizeLast=0;collapsible=1;marginBottom=0;whiteSpace=wrap;html=1;" vertex="1" parent="1">
          <mxGeometry x="450" y="270" width="140" height="170" as="geometry" />
        </mxCell>
        <mxCell id="19qytxaOB_nF2SuPqsgH-24" value="+IdTerapia" style="text;strokeColor=none;fillColor=none;align=left;verticalAlign=middle;spacingLeft=4;spacingRight=4;overflow=hidden;points=[[0,0.5],[1,0.5]];portConstraint=eastwest;rotatable=0;whiteSpace=wrap;html=1;" vertex="1" parent="19qytxaOB_nF2SuPqsgH-23">
          <mxGeometry y="30" width="140" height="30" as="geometry" />
        </mxCell>
        <mxCell id="19qytxaOB_nF2SuPqsgH-25" value="+DataInicio" style="text;strokeColor=none;fillColor=none;align=left;verticalAlign=middle;spacingLeft=4;spacingRight=4;overflow=hidden;points=[[0,0.5],[1,0.5]];portConstraint=eastwest;rotatable=0;whiteSpace=wrap;html=1;" vertex="1" parent="19qytxaOB_nF2SuPqsgH-23">
          <mxGeometry y="60" width="140" height="30" as="geometry" />
        </mxCell>
        <mxCell id="19qytxaOB_nF2SuPqsgH-26" value="+DataFinal" style="text;strokeColor=none;fillColor=none;align=left;verticalAlign=middle;spacingLeft=4;spacingRight=4;overflow=hidden;points=[[0,0.5],[1,0.5]];portConstraint=eastwest;rotatable=0;whiteSpace=wrap;html=1;" vertex="1" parent="19qytxaOB_nF2SuPqsgH-23">
          <mxGeometry y="90" width="140" height="30" as="geometry" />
        </mxCell>
        <mxCell id="19qytxaOB_nF2SuPqsgH-27" value="+Capacidade" style="text;strokeColor=none;fillColor=none;align=left;verticalAlign=middle;spacingLeft=4;spacingRight=4;overflow=hidden;points=[[0,0.5],[1,0.5]];portConstraint=eastwest;rotatable=0;whiteSpace=wrap;html=1;" vertex="1" parent="19qytxaOB_nF2SuPqsgH-23">
          <mxGeometry y="120" width="140" height="30" as="geometry" />
        </mxCell>
        <mxCell id="19qytxaOB_nF2SuPqsgH-28" value="" style="text;strokeColor=default;fillColor=none;align=left;verticalAlign=middle;spacingLeft=4;spacingRight=4;overflow=hidden;points=[[0,0.5],[1,0.5]];portConstraint=eastwest;rotatable=0;whiteSpace=wrap;html=1;" vertex="1" parent="19qytxaOB_nF2SuPqsgH-23">
          <mxGeometry y="150" width="140" height="20" as="geometry" />
        </mxCell>
        <mxCell id="19qytxaOB_nF2SuPqsgH-29" value="" style="rhombus;whiteSpace=wrap;html=1;fillColor=#030303;rotation=-60;" vertex="1" parent="1">
          <mxGeometry x="440" y="451" width="46" height="20" as="geometry" />
        </mxCell>
        <mxCell id="19qytxaOB_nF2SuPqsgH-30" value="" style="endArrow=none;html=1;rounded=0;" edge="1" parent="1" source="19qytxaOB_nF2SuPqsgH-11">
          <mxGeometry width="50" height="50" relative="1" as="geometry">
            <mxPoint x="403" y="529" as="sourcePoint" />
            <mxPoint x="453" y="479" as="targetPoint" />
          </mxGeometry>
        </mxCell>
        <mxCell id="19qytxaOB_nF2SuPqsgH-31" value="" style="endArrow=none;html=1;rounded=0;exitX=1.013;exitY=0.319;exitDx=0;exitDy=0;exitPerimeter=0;" edge="1" parent="1">
          <mxGeometry width="50" height="50" relative="1" as="geometry">
            <mxPoint x="471.0799999999999" y="650.9860000000001" as="sourcePoint" />
            <mxPoint x="549" y="650" as="targetPoint" />
          </mxGeometry>
        </mxCell>
        <mxCell id="19qytxaOB_nF2SuPqsgH-32" value="" style="rhombus;whiteSpace=wrap;html=1;fillColor=#FFFFFF;" vertex="1" parent="1">
          <mxGeometry x="590" y="400" width="46" height="20" as="geometry" />
        </mxCell>
      </root>
    </mxGraphModel>
  </diagram>
  <diagram id="UhNqE15dJ8dvsZCBLthf" name="Sequência">
    <mxGraphModel dx="792" dy="1940" grid="1" gridSize="10" guides="1" tooltips="1" connect="1" arrows="1" fold="1" page="1" pageScale="1" pageWidth="827" pageHeight="1169" math="0" shadow="0">
      <root>
        <mxCell id="0" />
        <mxCell id="1" parent="0" />
        <mxCell id="oKuGsZWZFQPHgcR68yrI-1" value="Cliente" style="rounded=0;whiteSpace=wrap;html=1;" vertex="1" parent="1">
          <mxGeometry x="150" y="-620" width="60" height="30" as="geometry" />
        </mxCell>
        <mxCell id="oKuGsZWZFQPHgcR68yrI-2" value="Hotel" style="rounded=0;whiteSpace=wrap;html=1;" vertex="1" parent="1">
          <mxGeometry x="378.5" y="-614" width="60" height="30" as="geometry" />
        </mxCell>
        <mxCell id="oKuGsZWZFQPHgcR68yrI-3" value="Apartamento" style="rounded=0;whiteSpace=wrap;html=1;" vertex="1" parent="1">
          <mxGeometry x="520" y="-614.5" width="80" height="30" as="geometry" />
        </mxCell>
        <mxCell id="oKuGsZWZFQPHgcR68yrI-6" value="Histórico" style="rounded=0;whiteSpace=wrap;html=1;" vertex="1" parent="1">
          <mxGeometry x="635" y="-614" width="80" height="30" as="geometry" />
        </mxCell>
        <mxCell id="oKuGsZWZFQPHgcR68yrI-7" value="" style="html=1;points=[[0,0,0,0,5],[0,1,0,0,-5],[1,0,0,0,5],[1,1,0,0,-5]];perimeter=orthogonalPerimeter;outlineConnect=0;targetShapes=umlLifeline;portConstraint=eastwest;newEdgeStyle={&quot;curved&quot;:0,&quot;rounded&quot;:0};" vertex="1" parent="1">
          <mxGeometry x="403" y="-560" width="11" height="150" as="geometry" />
        </mxCell>
        <mxCell id="oKuGsZWZFQPHgcR68yrI-8" value="1 : RequisitaApartamento(tipo)" style="html=1;verticalAlign=bottom;endArrow=block;curved=0;rounded=0;entryX=0;entryY=0;entryDx=0;entryDy=5;entryPerimeter=0;" edge="1" target="oKuGsZWZFQPHgcR68yrI-7" parent="1">
          <mxGeometry relative="1" as="geometry">
            <mxPoint x="190" y="-555" as="sourcePoint" />
          </mxGeometry>
        </mxCell>
        <mxCell id="oKuGsZWZFQPHgcR68yrI-9" value="7 AprovaTransacao(Apartamento)" style="html=1;verticalAlign=bottom;endArrow=open;dashed=1;endSize=8;curved=0;rounded=0;exitX=1;exitY=1;exitDx=0;exitDy=-5;" edge="1" source="oKuGsZWZFQPHgcR68yrI-7" parent="1">
          <mxGeometry relative="1" as="geometry">
            <mxPoint x="190" y="-415" as="targetPoint" />
          </mxGeometry>
        </mxCell>
        <mxCell id="oKuGsZWZFQPHgcR68yrI-11" value="" style="endArrow=none;dashed=1;html=1;rounded=0;" edge="1" parent="1">
          <mxGeometry width="50" height="50" relative="1" as="geometry">
            <mxPoint x="190" y="-340" as="sourcePoint" />
            <mxPoint x="190" y="-590" as="targetPoint" />
          </mxGeometry>
        </mxCell>
        <mxCell id="oKuGsZWZFQPHgcR68yrI-12" value="" style="endArrow=none;dashed=1;html=1;rounded=0;exitX=0;exitY=0;exitDx=0;exitDy=5;exitPerimeter=0;" edge="1" parent="1">
          <mxGeometry width="50" height="50" relative="1" as="geometry">
            <mxPoint x="408" y="-561" as="sourcePoint" />
            <mxPoint x="407" y="-586" as="targetPoint" />
          </mxGeometry>
        </mxCell>
        <mxCell id="oKuGsZWZFQPHgcR68yrI-13" value="" style="html=1;points=[[0,0,0,0,5],[0,1,0,0,-5],[1,0,0,0,5],[1,1,0,0,-5]];perimeter=orthogonalPerimeter;outlineConnect=0;targetShapes=umlLifeline;portConstraint=eastwest;newEdgeStyle={&quot;curved&quot;:0,&quot;rounded&quot;:0};" vertex="1" parent="1">
          <mxGeometry x="550" y="-500" width="10" height="40" as="geometry" />
        </mxCell>
        <mxCell id="oKuGsZWZFQPHgcR68yrI-14" value="4 : RequisitosApartamento&amp;nbsp;" style="html=1;verticalAlign=bottom;endArrow=block;curved=0;rounded=0;entryX=0;entryY=0;entryDx=0;entryDy=5;" edge="1" target="oKuGsZWZFQPHgcR68yrI-13" parent="1">
          <mxGeometry relative="1" as="geometry">
            <mxPoint x="414" y="-495" as="sourcePoint" />
          </mxGeometry>
        </mxCell>
        <mxCell id="oKuGsZWZFQPHgcR68yrI-15" value="5 : Apartamento" style="html=1;verticalAlign=bottom;endArrow=open;dashed=1;endSize=8;curved=0;rounded=0;exitX=0;exitY=1;exitDx=0;exitDy=-5;" edge="1" source="oKuGsZWZFQPHgcR68yrI-13" parent="1" target="oKuGsZWZFQPHgcR68yrI-7">
          <mxGeometry relative="1" as="geometry">
            <mxPoint x="414" y="-425" as="targetPoint" />
            <mxPoint as="offset" />
          </mxGeometry>
        </mxCell>
        <mxCell id="FxP389dqnxSokWRROWBX-1" value="" style="html=1;points=[[0,0,0,0,5],[0,1,0,0,-5],[1,0,0,0,5],[1,1,0,0,-5]];perimeter=orthogonalPerimeter;outlineConnect=0;targetShapes=umlLifeline;portConstraint=eastwest;newEdgeStyle={&quot;curved&quot;:0,&quot;rounded&quot;:0};" vertex="1" parent="1">
          <mxGeometry x="541" y="-433" width="10" height="30" as="geometry" />
        </mxCell>
        <mxCell id="FxP389dqnxSokWRROWBX-2" value="" style="endArrow=classic;html=1;rounded=0;" edge="1" parent="1" source="oKuGsZWZFQPHgcR68yrI-7">
          <mxGeometry width="50" height="50" relative="1" as="geometry">
            <mxPoint x="450" y="-417" as="sourcePoint" />
            <mxPoint x="540" y="-430" as="targetPoint" />
          </mxGeometry>
        </mxCell>
        <mxCell id="FxP389dqnxSokWRROWBX-3" value="6 : AtualizaStatus" style="text;html=1;align=center;verticalAlign=middle;whiteSpace=wrap;rounded=0;" vertex="1" parent="1">
          <mxGeometry x="410" y="-453" width="129" height="30" as="geometry" />
        </mxCell>
        <mxCell id="FxP389dqnxSokWRROWBX-4" value="" style="endArrow=none;dashed=1;html=1;rounded=0;" edge="1" parent="1">
          <mxGeometry width="50" height="50" relative="1" as="geometry">
            <mxPoint x="550" y="-340" as="sourcePoint" />
            <mxPoint x="550" y="-584" as="targetPoint" />
          </mxGeometry>
        </mxCell>
        <mxCell id="FxP389dqnxSokWRROWBX-5" value="" style="html=1;points=[[0,0,0,0,5],[0,1,0,0,-5],[1,0,0,0,5],[1,1,0,0,-5]];perimeter=orthogonalPerimeter;outlineConnect=0;targetShapes=umlLifeline;portConstraint=eastwest;newEdgeStyle={&quot;curved&quot;:0,&quot;rounded&quot;:0};" vertex="1" parent="1">
          <mxGeometry x="670" y="-560" width="10" height="60" as="geometry" />
        </mxCell>
        <mxCell id="FxP389dqnxSokWRROWBX-6" value="2 : ChecarHistorico" style="html=1;verticalAlign=bottom;endArrow=block;curved=0;rounded=0;entryX=0;entryY=0;entryDx=0;entryDy=5;exitX=1;exitY=0;exitDx=0;exitDy=5;exitPerimeter=0;" edge="1" target="FxP389dqnxSokWRROWBX-5" parent="1" source="oKuGsZWZFQPHgcR68yrI-7">
          <mxGeometry relative="1" as="geometry">
            <mxPoint x="600" y="-555" as="sourcePoint" />
          </mxGeometry>
        </mxCell>
        <mxCell id="FxP389dqnxSokWRROWBX-7" value="3 : Historico" style="html=1;verticalAlign=bottom;endArrow=open;dashed=1;endSize=8;curved=0;rounded=0;exitX=0;exitY=1;exitDx=0;exitDy=-5;" edge="1" parent="1" target="oKuGsZWZFQPHgcR68yrI-7">
          <mxGeometry relative="1" as="geometry">
            <mxPoint x="599" y="-524" as="targetPoint" />
            <mxPoint x="669" y="-524" as="sourcePoint" />
          </mxGeometry>
        </mxCell>
        <mxCell id="FxP389dqnxSokWRROWBX-9" value="" style="endArrow=none;dashed=1;html=1;rounded=0;" edge="1" parent="1">
          <mxGeometry width="50" height="50" relative="1" as="geometry">
            <mxPoint x="674.5" y="-341" as="sourcePoint" />
            <mxPoint x="674.5" y="-585" as="targetPoint" />
          </mxGeometry>
        </mxCell>
      </root>
    </mxGraphModel>
  </diagram>
  <diagram id="5S2aXdAPYr_6pLnDPbCW" name="Atividades">
    <mxGraphModel dx="792" dy="771" grid="1" gridSize="10" guides="1" tooltips="1" connect="1" arrows="1" fold="1" page="1" pageScale="1" pageWidth="827" pageHeight="1169" math="0" shadow="0">
      <root>
        <mxCell id="0" />
        <mxCell id="1" parent="0" />
        <mxCell id="mFW_4EwVeRKhxiUUQFK--2" style="edgeStyle=orthogonalEdgeStyle;rounded=0;orthogonalLoop=1;jettySize=auto;html=1;exitX=0.5;exitY=1;exitDx=0;exitDy=0;fillColor=#f8cecc;strokeColor=#FF0000;" edge="1" parent="1" source="mFW_4EwVeRKhxiUUQFK--1">
          <mxGeometry relative="1" as="geometry">
            <mxPoint x="180" y="300" as="targetPoint" />
          </mxGeometry>
        </mxCell>
        <mxCell id="mFW_4EwVeRKhxiUUQFK--1" value="" style="ellipse;html=1;shape=endState;fillColor=#000000;strokeColor=#ff0000;" vertex="1" parent="1">
          <mxGeometry x="170" y="200" width="20" height="20" as="geometry" />
        </mxCell>
        <mxCell id="mFW_4EwVeRKhxiUUQFK--3" value="Informa novo código do cliente" style="rounded=1;whiteSpace=wrap;html=1;arcSize=40;fontColor=#000000;fillColor=#ffffc0;strokeColor=#ff0000;" vertex="1" parent="1">
          <mxGeometry x="120" y="300" width="120" height="40" as="geometry" />
        </mxCell>
        <mxCell id="mFW_4EwVeRKhxiUUQFK--4" value="" style="edgeStyle=orthogonalEdgeStyle;html=1;verticalAlign=bottom;endArrow=open;endSize=8;strokeColor=#ff0000;rounded=0;" edge="1" source="mFW_4EwVeRKhxiUUQFK--3" parent="1">
          <mxGeometry relative="1" as="geometry">
            <mxPoint x="180" y="400" as="targetPoint" />
          </mxGeometry>
        </mxCell>
        <mxCell id="mFW_4EwVeRKhxiUUQFK--7" value="Verifica se o cliente&lt;div&gt;já existe&lt;/div&gt;" style="rounded=1;whiteSpace=wrap;html=1;arcSize=40;fontColor=#000000;fillColor=#ffffc0;strokeColor=#ff0000;" vertex="1" parent="1">
          <mxGeometry x="120" y="400" width="120" height="40" as="geometry" />
        </mxCell>
        <mxCell id="mFW_4EwVeRKhxiUUQFK--8" value="" style="edgeStyle=orthogonalEdgeStyle;html=1;verticalAlign=bottom;endArrow=open;endSize=8;strokeColor=#ff0000;rounded=0;" edge="1" source="mFW_4EwVeRKhxiUUQFK--7" parent="1">
          <mxGeometry relative="1" as="geometry">
            <mxPoint x="180" y="500" as="targetPoint" />
          </mxGeometry>
        </mxCell>
        <mxCell id="mFW_4EwVeRKhxiUUQFK--9" value="Condition" style="rhombus;whiteSpace=wrap;html=1;fontColor=#000000;fillColor=#ffffc0;strokeColor=#ff0000;" vertex="1" parent="1">
          <mxGeometry x="140" y="500" width="80" height="40" as="geometry" />
        </mxCell>
        <mxCell id="mFW_4EwVeRKhxiUUQFK--10" value="[ Cliente não existe ]" style="edgeStyle=orthogonalEdgeStyle;html=1;align=left;verticalAlign=bottom;endArrow=open;endSize=8;strokeColor=#ff0000;rounded=0;" edge="1" source="mFW_4EwVeRKhxiUUQFK--9" parent="1">
          <mxGeometry x="-1" relative="1" as="geometry">
            <mxPoint x="340" y="520" as="targetPoint" />
          </mxGeometry>
        </mxCell>
        <mxCell id="mFW_4EwVeRKhxiUUQFK--11" value="[ Cliente já existe ]" style="edgeStyle=orthogonalEdgeStyle;html=1;align=left;verticalAlign=top;endArrow=open;endSize=8;strokeColor=#ff0000;rounded=0;" edge="1" source="mFW_4EwVeRKhxiUUQFK--9" parent="1">
          <mxGeometry x="-1" relative="1" as="geometry">
            <mxPoint x="180" y="620" as="targetPoint" />
          </mxGeometry>
        </mxCell>
        <mxCell id="mFW_4EwVeRKhxiUUQFK--12" value="Exibe mensagem ao&amp;nbsp;&lt;div&gt;usuário&lt;/div&gt;" style="rounded=1;whiteSpace=wrap;html=1;arcSize=40;fontColor=#000000;fillColor=#ffffc0;strokeColor=#ff0000;" vertex="1" parent="1">
          <mxGeometry x="120" y="620" width="120" height="40" as="geometry" />
        </mxCell>
        <mxCell id="mFW_4EwVeRKhxiUUQFK--13" value="" style="edgeStyle=orthogonalEdgeStyle;html=1;verticalAlign=bottom;endArrow=open;endSize=8;strokeColor=#ff0000;rounded=0;" edge="1" source="mFW_4EwVeRKhxiUUQFK--12" parent="1">
          <mxGeometry relative="1" as="geometry">
            <mxPoint x="180" y="720" as="targetPoint" />
          </mxGeometry>
        </mxCell>
        <mxCell id="mFW_4EwVeRKhxiUUQFK--14" value="" style="ellipse;html=1;shape=endState;fillColor=#000000;strokeColor=#ff0000;" vertex="1" parent="1">
          <mxGeometry x="170" y="720" width="20" height="20" as="geometry" />
        </mxCell>
        <mxCell id="mFW_4EwVeRKhxiUUQFK--15" value="Informa os dados do novo cliente" style="rounded=1;whiteSpace=wrap;html=1;arcSize=40;fontColor=#000000;fillColor=#ffffc0;strokeColor=#ff0000;" vertex="1" parent="1">
          <mxGeometry x="340" y="500" width="120" height="40" as="geometry" />
        </mxCell>
        <mxCell id="mFW_4EwVeRKhxiUUQFK--17" value="" style="edgeStyle=orthogonalEdgeStyle;html=1;align=left;verticalAlign=bottom;endArrow=open;endSize=8;strokeColor=#ff0000;rounded=0;" edge="1" parent="1">
          <mxGeometry x="-1" relative="1" as="geometry">
            <mxPoint x="530" y="520" as="targetPoint" />
            <mxPoint x="460" y="519.5" as="sourcePoint" />
          </mxGeometry>
        </mxCell>
        <mxCell id="mFW_4EwVeRKhxiUUQFK--19" value="Salva dados do cliente" style="rounded=1;whiteSpace=wrap;html=1;arcSize=40;fontColor=#000000;fillColor=#ffffc0;strokeColor=#ff0000;" vertex="1" parent="1">
          <mxGeometry x="530" y="500" width="120" height="40" as="geometry" />
        </mxCell>
        <mxCell id="mFW_4EwVeRKhxiUUQFK--24" value="" style="edgeStyle=orthogonalEdgeStyle;html=1;verticalAlign=bottom;endArrow=open;endSize=8;strokeColor=#ff0000;rounded=0;" edge="1" parent="1">
          <mxGeometry relative="1" as="geometry">
            <mxPoint x="590" y="580" as="targetPoint" />
            <mxPoint x="589.5" y="540" as="sourcePoint" />
          </mxGeometry>
        </mxCell>
        <mxCell id="mFW_4EwVeRKhxiUUQFK--25" value="" style="ellipse;html=1;shape=endState;fillColor=#000000;strokeColor=#ff0000;" vertex="1" parent="1">
          <mxGeometry x="580" y="579" width="20" height="20" as="geometry" />
        </mxCell>
      </root>
    </mxGraphModel>
  </diagram>
  <diagram id="DyGvh7ffM3gvUpMVv3Nd" name="Estados">
    <mxGraphModel dx="792" dy="771" grid="1" gridSize="10" guides="1" tooltips="1" connect="1" arrows="1" fold="1" page="1" pageScale="1" pageWidth="827" pageHeight="1169" math="0" shadow="0">
      <root>
        <mxCell id="0" />
        <mxCell id="1" parent="0" />
        <mxCell id="XL3BB7Aa9WFn70QWnyw7-3" value="" style="rounded=0;whiteSpace=wrap;html=1;" vertex="1" parent="1">
          <mxGeometry x="110" y="440" width="470" height="310" as="geometry" />
        </mxCell>
        <mxCell id="XL3BB7Aa9WFn70QWnyw7-2" value="Graduação" style="html=1;whiteSpace=wrap;" vertex="1" parent="1">
          <mxGeometry x="110" y="440" width="110" height="30" as="geometry" />
        </mxCell>
        <mxCell id="XL3BB7Aa9WFn70QWnyw7-6" style="edgeStyle=orthogonalEdgeStyle;rounded=0;orthogonalLoop=1;jettySize=auto;html=1;exitX=0.5;exitY=1;exitDx=0;exitDy=0;entryX=0;entryY=0.5;entryDx=0;entryDy=0;" edge="1" parent="1" source="XL3BB7Aa9WFn70QWnyw7-4" target="XL3BB7Aa9WFn70QWnyw7-5">
          <mxGeometry relative="1" as="geometry" />
        </mxCell>
        <mxCell id="XL3BB7Aa9WFn70QWnyw7-4" value="" style="ellipse;whiteSpace=wrap;html=1;aspect=fixed;fillColor=#000000;fontColor=#ffffff;strokeColor=#000000;" vertex="1" parent="1">
          <mxGeometry x="140" y="480" width="30" height="30" as="geometry" />
        </mxCell>
        <mxCell id="Y6_1W2XHJ_DTJsU5hkyV-1" style="edgeStyle=orthogonalEdgeStyle;rounded=0;orthogonalLoop=1;jettySize=auto;html=1;exitX=0.5;exitY=1;exitDx=0;exitDy=0;entryX=0;entryY=0.5;entryDx=0;entryDy=0;" edge="1" parent="1" source="XL3BB7Aa9WFn70QWnyw7-5" target="XL3BB7Aa9WFn70QWnyw7-7">
          <mxGeometry relative="1" as="geometry" />
        </mxCell>
        <mxCell id="XL3BB7Aa9WFn70QWnyw7-5" value="Calouro" style="rounded=1;whiteSpace=wrap;html=1;" vertex="1" parent="1">
          <mxGeometry x="200" y="520" width="90" height="30" as="geometry" />
        </mxCell>
        <mxCell id="Y6_1W2XHJ_DTJsU5hkyV-3" style="edgeStyle=orthogonalEdgeStyle;rounded=0;orthogonalLoop=1;jettySize=auto;html=1;exitX=0.5;exitY=1;exitDx=0;exitDy=0;entryX=0;entryY=0.5;entryDx=0;entryDy=0;" edge="1" parent="1" source="XL3BB7Aa9WFn70QWnyw7-7" target="Y6_1W2XHJ_DTJsU5hkyV-2">
          <mxGeometry relative="1" as="geometry" />
        </mxCell>
        <mxCell id="XL3BB7Aa9WFn70QWnyw7-7" value="Estudante do segundo ano" style="rounded=1;whiteSpace=wrap;html=1;" vertex="1" parent="1">
          <mxGeometry x="280" y="570" width="90" height="30" as="geometry" />
        </mxCell>
        <mxCell id="Y6_1W2XHJ_DTJsU5hkyV-6" style="edgeStyle=orthogonalEdgeStyle;rounded=0;orthogonalLoop=1;jettySize=auto;html=1;exitX=0.5;exitY=1;exitDx=0;exitDy=0;entryX=0;entryY=0.5;entryDx=0;entryDy=0;" edge="1" parent="1" source="Y6_1W2XHJ_DTJsU5hkyV-2" target="Y6_1W2XHJ_DTJsU5hkyV-5">
          <mxGeometry relative="1" as="geometry" />
        </mxCell>
        <mxCell id="Y6_1W2XHJ_DTJsU5hkyV-2" value="Junior" style="rounded=1;whiteSpace=wrap;html=1;" vertex="1" parent="1">
          <mxGeometry x="360" y="610" width="90" height="30" as="geometry" />
        </mxCell>
        <mxCell id="Y6_1W2XHJ_DTJsU5hkyV-8" style="edgeStyle=orthogonalEdgeStyle;rounded=0;orthogonalLoop=1;jettySize=auto;html=1;exitX=0.5;exitY=1;exitDx=0;exitDy=0;entryX=0;entryY=0.5;entryDx=0;entryDy=0;" edge="1" parent="1" source="Y6_1W2XHJ_DTJsU5hkyV-5" target="Y6_1W2XHJ_DTJsU5hkyV-7">
          <mxGeometry relative="1" as="geometry" />
        </mxCell>
        <mxCell id="Y6_1W2XHJ_DTJsU5hkyV-5" value="Senior" style="rounded=1;whiteSpace=wrap;html=1;" vertex="1" parent="1">
          <mxGeometry x="440" y="650" width="90" height="30" as="geometry" />
        </mxCell>
        <mxCell id="Y6_1W2XHJ_DTJsU5hkyV-7" value="" style="ellipse;html=1;shape=endState;fillColor=#000000;strokeColor=#000000;" vertex="1" parent="1">
          <mxGeometry x="530" y="690" width="30" height="30" as="geometry" />
        </mxCell>
      </root>
    </mxGraphModel>
  </diagram>
  <diagram id="Ogb4sIu21Ylbnl7lNQIk" name="Pacotes">
    <mxGraphModel dx="792" dy="771" grid="1" gridSize="10" guides="1" tooltips="1" connect="1" arrows="1" fold="1" page="1" pageScale="1" pageWidth="827" pageHeight="1169" math="0" shadow="0">
      <root>
        <mxCell id="0" />
        <mxCell id="1" parent="0" />
        <mxCell id="uLpMmV9alMDVH_ILgowu-3" value="" style="group;fontStyle=4" vertex="1" connectable="0" parent="1">
          <mxGeometry x="270" y="340" width="90" height="90" as="geometry" />
        </mxCell>
        <mxCell id="uLpMmV9alMDVH_ILgowu-1" value="Cadastro" style="rounded=0;whiteSpace=wrap;html=1;" vertex="1" parent="uLpMmV9alMDVH_ILgowu-3">
          <mxGeometry y="20" width="90" height="70" as="geometry" />
        </mxCell>
        <mxCell id="uLpMmV9alMDVH_ILgowu-2" value="" style="rounded=0;whiteSpace=wrap;html=1;" vertex="1" parent="uLpMmV9alMDVH_ILgowu-3">
          <mxGeometry y="10" width="40" height="10" as="geometry" />
        </mxCell>
        <mxCell id="uLpMmV9alMDVH_ILgowu-4" value="" style="group" vertex="1" connectable="0" parent="1">
          <mxGeometry x="270" y="450" width="90" height="90" as="geometry" />
        </mxCell>
        <mxCell id="uLpMmV9alMDVH_ILgowu-5" value="Locação" style="rounded=0;whiteSpace=wrap;html=1;" vertex="1" parent="uLpMmV9alMDVH_ILgowu-4">
          <mxGeometry y="20" width="90" height="70" as="geometry" />
        </mxCell>
        <mxCell id="uLpMmV9alMDVH_ILgowu-6" value="" style="rounded=0;whiteSpace=wrap;html=1;" vertex="1" parent="uLpMmV9alMDVH_ILgowu-4">
          <mxGeometry y="10" width="40" height="10" as="geometry" />
        </mxCell>
        <mxCell id="j5X1dYmUMqYsw1k0BKn4-1" value="" style="group" vertex="1" connectable="0" parent="1">
          <mxGeometry x="270" y="550" width="90" height="90" as="geometry" />
        </mxCell>
        <mxCell id="j5X1dYmUMqYsw1k0BKn4-2" value="Financeiro" style="rounded=0;whiteSpace=wrap;html=1;" vertex="1" parent="j5X1dYmUMqYsw1k0BKn4-1">
          <mxGeometry y="20" width="90" height="70" as="geometry" />
        </mxCell>
        <mxCell id="j5X1dYmUMqYsw1k0BKn4-3" value="" style="rounded=0;whiteSpace=wrap;html=1;" vertex="1" parent="j5X1dYmUMqYsw1k0BKn4-1">
          <mxGeometry y="10" width="40" height="10" as="geometry" />
        </mxCell>
        <mxCell id="j5X1dYmUMqYsw1k0BKn4-4" value="" style="group" vertex="1" connectable="0" parent="1">
          <mxGeometry x="270" y="650" width="90" height="90" as="geometry" />
        </mxCell>
        <mxCell id="j5X1dYmUMqYsw1k0BKn4-5" value="Relatórios" style="rounded=0;whiteSpace=wrap;html=1;" vertex="1" parent="j5X1dYmUMqYsw1k0BKn4-4">
          <mxGeometry y="20" width="90" height="70" as="geometry" />
        </mxCell>
        <mxCell id="j5X1dYmUMqYsw1k0BKn4-6" value="" style="rounded=0;whiteSpace=wrap;html=1;" vertex="1" parent="j5X1dYmUMqYsw1k0BKn4-4">
          <mxGeometry y="10" width="40" height="10" as="geometry" />
        </mxCell>
        <mxCell id="j5X1dYmUMqYsw1k0BKn4-7" value="" style="group" vertex="1" connectable="0" parent="1">
          <mxGeometry x="270" y="750" width="90" height="90" as="geometry" />
        </mxCell>
        <mxCell id="j5X1dYmUMqYsw1k0BKn4-8" value="Consultas" style="rounded=0;whiteSpace=wrap;html=1;" vertex="1" parent="j5X1dYmUMqYsw1k0BKn4-7">
          <mxGeometry y="20" width="90" height="70" as="geometry" />
        </mxCell>
        <mxCell id="j5X1dYmUMqYsw1k0BKn4-9" value="" style="rounded=0;whiteSpace=wrap;html=1;" vertex="1" parent="j5X1dYmUMqYsw1k0BKn4-7">
          <mxGeometry y="10" width="40" height="10" as="geometry" />
        </mxCell>
        <mxCell id="j5X1dYmUMqYsw1k0BKn4-10" value="" style="group" vertex="1" connectable="0" parent="1">
          <mxGeometry x="610" y="540" width="90" height="90" as="geometry" />
        </mxCell>
        <mxCell id="j5X1dYmUMqYsw1k0BKn4-11" value="Gerenciamento de Usuários" style="rounded=0;whiteSpace=wrap;html=1;" vertex="1" parent="j5X1dYmUMqYsw1k0BKn4-10">
          <mxGeometry y="20" width="90" height="70" as="geometry" />
        </mxCell>
        <mxCell id="j5X1dYmUMqYsw1k0BKn4-12" value="" style="rounded=0;whiteSpace=wrap;html=1;" vertex="1" parent="j5X1dYmUMqYsw1k0BKn4-10">
          <mxGeometry y="10" width="40" height="10" as="geometry" />
        </mxCell>
        <mxCell id="j5X1dYmUMqYsw1k0BKn4-15" value="" style="endArrow=classic;html=1;rounded=0;exitX=1;exitY=0.5;exitDx=0;exitDy=0;entryX=0;entryY=0;entryDx=0;entryDy=0;" edge="1" parent="1" source="uLpMmV9alMDVH_ILgowu-1" target="j5X1dYmUMqYsw1k0BKn4-11">
          <mxGeometry width="50" height="50" relative="1" as="geometry">
            <mxPoint x="490" y="590" as="sourcePoint" />
            <mxPoint x="540" y="540" as="targetPoint" />
          </mxGeometry>
        </mxCell>
        <mxCell id="j5X1dYmUMqYsw1k0BKn4-16" value="" style="endArrow=classic;html=1;rounded=0;exitX=1;exitY=0.5;exitDx=0;exitDy=0;entryX=0;entryY=0.25;entryDx=0;entryDy=0;" edge="1" parent="1" source="uLpMmV9alMDVH_ILgowu-5" target="j5X1dYmUMqYsw1k0BKn4-11">
          <mxGeometry width="50" height="50" relative="1" as="geometry">
            <mxPoint x="490" y="590" as="sourcePoint" />
            <mxPoint x="540" y="540" as="targetPoint" />
          </mxGeometry>
        </mxCell>
        <mxCell id="j5X1dYmUMqYsw1k0BKn4-17" value="" style="endArrow=classic;html=1;rounded=0;entryX=0;entryY=1;entryDx=0;entryDy=0;exitX=1;exitY=0.5;exitDx=0;exitDy=0;" edge="1" parent="1" source="j5X1dYmUMqYsw1k0BKn4-8" target="j5X1dYmUMqYsw1k0BKn4-11">
          <mxGeometry width="50" height="50" relative="1" as="geometry">
            <mxPoint x="360" y="610" as="sourcePoint" />
            <mxPoint x="540" y="540" as="targetPoint" />
          </mxGeometry>
        </mxCell>
        <mxCell id="j5X1dYmUMqYsw1k0BKn4-18" value="" style="endArrow=classic;html=1;rounded=0;entryX=0;entryY=0.75;entryDx=0;entryDy=0;" edge="1" parent="1" target="j5X1dYmUMqYsw1k0BKn4-11">
          <mxGeometry width="50" height="50" relative="1" as="geometry">
            <mxPoint x="360" y="710" as="sourcePoint" />
            <mxPoint x="410" y="660" as="targetPoint" />
          </mxGeometry>
        </mxCell>
        <mxCell id="j5X1dYmUMqYsw1k0BKn4-19" value="" style="endArrow=classic;html=1;rounded=0;exitX=1;exitY=0.5;exitDx=0;exitDy=0;entryX=0;entryY=0.5;entryDx=0;entryDy=0;" edge="1" parent="1" source="j5X1dYmUMqYsw1k0BKn4-2" target="j5X1dYmUMqYsw1k0BKn4-11">
          <mxGeometry width="50" height="50" relative="1" as="geometry">
            <mxPoint x="490" y="590" as="sourcePoint" />
            <mxPoint x="540" y="540" as="targetPoint" />
          </mxGeometry>
        </mxCell>
      </root>
    </mxGraphModel>
  </diagram>
  <diagram id="oDhzAELEHfb3_15FaQcl" name="Componentes">
    <mxGraphModel dx="1434" dy="772" grid="1" gridSize="10" guides="1" tooltips="1" connect="1" arrows="1" fold="1" page="1" pageScale="1" pageWidth="827" pageHeight="1169" math="0" shadow="0">
      <root>
        <mxCell id="0" />
        <mxCell id="1" parent="0" />
        <mxCell id="Y1n73IJos1OPsBSNIjIZ-1" value="" style="group" vertex="1" connectable="0" parent="1">
          <mxGeometry x="370" y="470" width="153" height="60" as="geometry" />
        </mxCell>
        <mxCell id="3L23cKrr_8VqjMYkY_dr-1" value="&amp;lt;&amp;lt;HTML&amp;gt;&amp;gt;&lt;div&gt;InterfaceCliente.html&lt;/div&gt;" style="rounded=0;whiteSpace=wrap;html=1;" vertex="1" parent="Y1n73IJos1OPsBSNIjIZ-1">
          <mxGeometry x="23" width="130" height="60" as="geometry" />
        </mxCell>
        <mxCell id="3L23cKrr_8VqjMYkY_dr-2" value="" style="rounded=0;whiteSpace=wrap;html=1;" vertex="1" parent="Y1n73IJos1OPsBSNIjIZ-1">
          <mxGeometry y="14" width="30" height="10" as="geometry" />
        </mxCell>
        <mxCell id="3L23cKrr_8VqjMYkY_dr-3" value="" style="rounded=0;whiteSpace=wrap;html=1;" vertex="1" parent="Y1n73IJos1OPsBSNIjIZ-1">
          <mxGeometry y="34" width="30" height="10" as="geometry" />
        </mxCell>
        <mxCell id="LImPPUrS2WQXpyz9ppYW-14" value="" style="endArrow=classic;html=1;rounded=0;entryX=0.054;entryY=1;entryDx=0;entryDy=0;entryPerimeter=0;" edge="1" parent="Y1n73IJos1OPsBSNIjIZ-1" target="3L23cKrr_8VqjMYkY_dr-1">
          <mxGeometry width="50" height="50" relative="1" as="geometry">
            <mxPoint x="-6" y="84" as="sourcePoint" />
            <mxPoint x="44" y="34" as="targetPoint" />
          </mxGeometry>
        </mxCell>
        <mxCell id="Y1n73IJos1OPsBSNIjIZ-2" value="" style="group" vertex="1" connectable="0" parent="1">
          <mxGeometry x="230" y="555" width="153" height="60" as="geometry" />
        </mxCell>
        <mxCell id="Y1n73IJos1OPsBSNIjIZ-3" value="&amp;lt;&amp;lt;HTML&amp;gt;&amp;gt;&lt;div&gt;InterfaceEstática.html&lt;/div&gt;" style="rounded=0;whiteSpace=wrap;html=1;" vertex="1" parent="Y1n73IJos1OPsBSNIjIZ-2">
          <mxGeometry x="23" width="130" height="60" as="geometry" />
        </mxCell>
        <mxCell id="Y1n73IJos1OPsBSNIjIZ-4" value="" style="rounded=0;whiteSpace=wrap;html=1;" vertex="1" parent="Y1n73IJos1OPsBSNIjIZ-2">
          <mxGeometry y="14" width="30" height="10" as="geometry" />
        </mxCell>
        <mxCell id="Y1n73IJos1OPsBSNIjIZ-5" value="" style="rounded=0;whiteSpace=wrap;html=1;" vertex="1" parent="Y1n73IJos1OPsBSNIjIZ-2">
          <mxGeometry y="34" width="30" height="10" as="geometry" />
        </mxCell>
        <mxCell id="Y1n73IJos1OPsBSNIjIZ-6" value="" style="group" vertex="1" connectable="0" parent="1">
          <mxGeometry x="370" y="720" width="153" height="60" as="geometry" />
        </mxCell>
        <mxCell id="Y1n73IJos1OPsBSNIjIZ-7" value="&amp;lt;&amp;lt;HTML&amp;gt;&amp;gt;&lt;div&gt;InterfaceExibidora.html&lt;/div&gt;" style="rounded=0;whiteSpace=wrap;html=1;" vertex="1" parent="Y1n73IJos1OPsBSNIjIZ-6">
          <mxGeometry x="23" width="130" height="60" as="geometry" />
        </mxCell>
        <mxCell id="Y1n73IJos1OPsBSNIjIZ-8" value="" style="rounded=0;whiteSpace=wrap;html=1;" vertex="1" parent="Y1n73IJos1OPsBSNIjIZ-6">
          <mxGeometry y="14" width="30" height="10" as="geometry" />
        </mxCell>
        <mxCell id="Y1n73IJos1OPsBSNIjIZ-9" value="" style="rounded=0;whiteSpace=wrap;html=1;" vertex="1" parent="Y1n73IJos1OPsBSNIjIZ-6">
          <mxGeometry y="34" width="30" height="10" as="geometry" />
        </mxCell>
        <mxCell id="WsKSaXJq3xfQDhQl-g9L-1" value="" style="group" vertex="1" connectable="0" parent="1">
          <mxGeometry x="580" y="540" width="153" height="60" as="geometry" />
        </mxCell>
        <mxCell id="WsKSaXJq3xfQDhQl-g9L-2" value="&amp;lt;&amp;lt;HTML&amp;gt;&amp;gt;&lt;div&gt;InterfaceDinamica.html&lt;/div&gt;" style="rounded=0;whiteSpace=wrap;html=1;" vertex="1" parent="WsKSaXJq3xfQDhQl-g9L-1">
          <mxGeometry x="23" width="130" height="60" as="geometry" />
        </mxCell>
        <mxCell id="WsKSaXJq3xfQDhQl-g9L-3" value="" style="rounded=0;whiteSpace=wrap;html=1;" vertex="1" parent="WsKSaXJq3xfQDhQl-g9L-1">
          <mxGeometry y="14" width="30" height="10" as="geometry" />
        </mxCell>
        <mxCell id="WsKSaXJq3xfQDhQl-g9L-4" value="" style="rounded=0;whiteSpace=wrap;html=1;" vertex="1" parent="WsKSaXJq3xfQDhQl-g9L-1">
          <mxGeometry y="34" width="30" height="10" as="geometry" />
        </mxCell>
        <mxCell id="WsKSaXJq3xfQDhQl-g9L-5" value="" style="group" vertex="1" connectable="0" parent="1">
          <mxGeometry x="370" y="830" width="153" height="60" as="geometry" />
        </mxCell>
        <mxCell id="WsKSaXJq3xfQDhQl-g9L-6" value="&amp;lt;&amp;lt;Applet&amp;gt;&amp;gt;&lt;div&gt;Cliente.java&lt;/div&gt;" style="rounded=0;whiteSpace=wrap;html=1;" vertex="1" parent="WsKSaXJq3xfQDhQl-g9L-5">
          <mxGeometry x="23" width="130" height="60" as="geometry" />
        </mxCell>
        <mxCell id="WsKSaXJq3xfQDhQl-g9L-7" value="" style="rounded=0;whiteSpace=wrap;html=1;" vertex="1" parent="WsKSaXJq3xfQDhQl-g9L-5">
          <mxGeometry y="14" width="30" height="10" as="geometry" />
        </mxCell>
        <mxCell id="WsKSaXJq3xfQDhQl-g9L-8" value="" style="rounded=0;whiteSpace=wrap;html=1;" vertex="1" parent="WsKSaXJq3xfQDhQl-g9L-5">
          <mxGeometry y="34" width="30" height="10" as="geometry" />
        </mxCell>
        <mxCell id="WsKSaXJq3xfQDhQl-g9L-10" value="" style="group" vertex="1" connectable="0" parent="1">
          <mxGeometry x="580" y="620" width="153" height="60" as="geometry" />
        </mxCell>
        <mxCell id="WsKSaXJq3xfQDhQl-g9L-11" value="&amp;lt;&amp;lt;Application&amp;gt;&amp;gt;&lt;div&gt;MontaApplet&lt;/div&gt;" style="rounded=0;whiteSpace=wrap;html=1;" vertex="1" parent="WsKSaXJq3xfQDhQl-g9L-10">
          <mxGeometry x="23" width="130" height="60" as="geometry" />
        </mxCell>
        <mxCell id="WsKSaXJq3xfQDhQl-g9L-12" value="" style="rounded=0;whiteSpace=wrap;html=1;" vertex="1" parent="WsKSaXJq3xfQDhQl-g9L-10">
          <mxGeometry y="14" width="30" height="10" as="geometry" />
        </mxCell>
        <mxCell id="WsKSaXJq3xfQDhQl-g9L-13" value="" style="rounded=0;whiteSpace=wrap;html=1;" vertex="1" parent="WsKSaXJq3xfQDhQl-g9L-10">
          <mxGeometry y="34" width="30" height="10" as="geometry" />
        </mxCell>
        <mxCell id="FKcr3k4zz4yFJm4dWUMU-1" value="" style="group" vertex="1" connectable="0" parent="1">
          <mxGeometry x="730" y="720" width="153" height="60" as="geometry" />
        </mxCell>
        <mxCell id="FKcr3k4zz4yFJm4dWUMU-2" value="&amp;lt;&amp;lt;Application&amp;gt;&amp;gt;&lt;div&gt;Servidor.java&lt;/div&gt;" style="rounded=0;whiteSpace=wrap;html=1;" vertex="1" parent="FKcr3k4zz4yFJm4dWUMU-1">
          <mxGeometry x="23" width="130" height="60" as="geometry" />
        </mxCell>
        <mxCell id="FKcr3k4zz4yFJm4dWUMU-3" value="" style="rounded=0;whiteSpace=wrap;html=1;" vertex="1" parent="FKcr3k4zz4yFJm4dWUMU-1">
          <mxGeometry y="14" width="30" height="10" as="geometry" />
        </mxCell>
        <mxCell id="FKcr3k4zz4yFJm4dWUMU-4" value="" style="rounded=0;whiteSpace=wrap;html=1;" vertex="1" parent="FKcr3k4zz4yFJm4dWUMU-1">
          <mxGeometry y="34" width="30" height="10" as="geometry" />
        </mxCell>
        <mxCell id="LImPPUrS2WQXpyz9ppYW-28" value="" style="endArrow=classic;html=1;rounded=0;entryX=0.5;entryY=0;entryDx=0;entryDy=0;" edge="1" parent="FKcr3k4zz4yFJm4dWUMU-1" target="LImPPUrS2WQXpyz9ppYW-2">
          <mxGeometry width="50" height="50" relative="1" as="geometry">
            <mxPoint x="85" y="60" as="sourcePoint" />
            <mxPoint x="135" y="10" as="targetPoint" />
          </mxGeometry>
        </mxCell>
        <mxCell id="LImPPUrS2WQXpyz9ppYW-1" value="" style="group" vertex="1" connectable="0" parent="1">
          <mxGeometry x="720" y="830" width="153" height="60" as="geometry" />
        </mxCell>
        <mxCell id="LImPPUrS2WQXpyz9ppYW-2" value="&amp;lt;&amp;lt;Application&amp;gt;&amp;gt;&lt;div&gt;TransmissorAV.java&lt;/div&gt;" style="rounded=0;whiteSpace=wrap;html=1;" vertex="1" parent="LImPPUrS2WQXpyz9ppYW-1">
          <mxGeometry x="23" width="130" height="60" as="geometry" />
        </mxCell>
        <mxCell id="LImPPUrS2WQXpyz9ppYW-3" value="" style="rounded=0;whiteSpace=wrap;html=1;" vertex="1" parent="LImPPUrS2WQXpyz9ppYW-1">
          <mxGeometry y="14" width="30" height="10" as="geometry" />
        </mxCell>
        <mxCell id="LImPPUrS2WQXpyz9ppYW-4" value="" style="rounded=0;whiteSpace=wrap;html=1;" vertex="1" parent="LImPPUrS2WQXpyz9ppYW-1">
          <mxGeometry y="34" width="30" height="10" as="geometry" />
        </mxCell>
        <mxCell id="LImPPUrS2WQXpyz9ppYW-5" value="" style="group" vertex="1" connectable="0" parent="1">
          <mxGeometry x="780" y="430" width="153" height="60" as="geometry" />
        </mxCell>
        <mxCell id="LImPPUrS2WQXpyz9ppYW-6" value="&amp;lt;&amp;lt;Application&amp;gt;&amp;gt;&lt;div&gt;GerentedeBusca.java&lt;/div&gt;" style="rounded=0;whiteSpace=wrap;html=1;" vertex="1" parent="LImPPUrS2WQXpyz9ppYW-5">
          <mxGeometry x="23" width="130" height="60" as="geometry" />
        </mxCell>
        <mxCell id="LImPPUrS2WQXpyz9ppYW-7" value="" style="rounded=0;whiteSpace=wrap;html=1;" vertex="1" parent="LImPPUrS2WQXpyz9ppYW-5">
          <mxGeometry y="14" width="30" height="10" as="geometry" />
        </mxCell>
        <mxCell id="LImPPUrS2WQXpyz9ppYW-8" value="" style="rounded=0;whiteSpace=wrap;html=1;" vertex="1" parent="LImPPUrS2WQXpyz9ppYW-5">
          <mxGeometry y="34" width="30" height="10" as="geometry" />
        </mxCell>
        <mxCell id="LImPPUrS2WQXpyz9ppYW-9" value="" style="group" vertex="1" connectable="0" parent="1">
          <mxGeometry x="800" y="525" width="153" height="60" as="geometry" />
        </mxCell>
        <mxCell id="LImPPUrS2WQXpyz9ppYW-10" value="&amp;lt;&amp;lt;DataBase&amp;gt;&amp;gt;&lt;div&gt;BancodeVideos.mdb&lt;/div&gt;" style="rounded=0;whiteSpace=wrap;html=1;" vertex="1" parent="LImPPUrS2WQXpyz9ppYW-9">
          <mxGeometry x="23" width="130" height="60" as="geometry" />
        </mxCell>
        <mxCell id="LImPPUrS2WQXpyz9ppYW-11" value="" style="rounded=0;whiteSpace=wrap;html=1;" vertex="1" parent="LImPPUrS2WQXpyz9ppYW-9">
          <mxGeometry y="14" width="30" height="10" as="geometry" />
        </mxCell>
        <mxCell id="LImPPUrS2WQXpyz9ppYW-12" value="" style="rounded=0;whiteSpace=wrap;html=1;" vertex="1" parent="LImPPUrS2WQXpyz9ppYW-9">
          <mxGeometry y="34" width="30" height="10" as="geometry" />
        </mxCell>
        <mxCell id="LImPPUrS2WQXpyz9ppYW-20" value="" style="endArrow=classic;html=1;rounded=0;entryX=0.5;entryY=1;entryDx=0;entryDy=0;exitX=0.5;exitY=0;exitDx=0;exitDy=0;" edge="1" parent="1" source="Y1n73IJos1OPsBSNIjIZ-7" target="3L23cKrr_8VqjMYkY_dr-1">
          <mxGeometry width="50" height="50" relative="1" as="geometry">
            <mxPoint x="450" y="720" as="sourcePoint" />
            <mxPoint x="500" y="670" as="targetPoint" />
          </mxGeometry>
        </mxCell>
        <mxCell id="LImPPUrS2WQXpyz9ppYW-21" value="" style="endArrow=classic;html=1;rounded=0;entryX=0.5;entryY=1;entryDx=0;entryDy=0;exitX=0.5;exitY=0;exitDx=0;exitDy=0;" edge="1" parent="1" source="WsKSaXJq3xfQDhQl-g9L-6" target="Y1n73IJos1OPsBSNIjIZ-7">
          <mxGeometry width="50" height="50" relative="1" as="geometry">
            <mxPoint x="450" y="830" as="sourcePoint" />
            <mxPoint x="500" y="780" as="targetPoint" />
          </mxGeometry>
        </mxCell>
        <mxCell id="LImPPUrS2WQXpyz9ppYW-22" value="" style="endArrow=classic;html=1;rounded=0;exitX=0;exitY=0.5;exitDx=0;exitDy=0;entryX=1;entryY=0.25;entryDx=0;entryDy=0;" edge="1" parent="1" source="FKcr3k4zz4yFJm4dWUMU-4" target="WsKSaXJq3xfQDhQl-g9L-6">
          <mxGeometry width="50" height="50" relative="1" as="geometry">
            <mxPoint x="660" y="800" as="sourcePoint" />
            <mxPoint x="710" y="750" as="targetPoint" />
          </mxGeometry>
        </mxCell>
        <mxCell id="LImPPUrS2WQXpyz9ppYW-23" value="" style="endArrow=classic;html=1;rounded=0;entryX=1;entryY=0.5;entryDx=0;entryDy=0;exitX=0;exitY=0.25;exitDx=0;exitDy=0;" edge="1" parent="1" source="LImPPUrS2WQXpyz9ppYW-3" target="WsKSaXJq3xfQDhQl-g9L-6">
          <mxGeometry width="50" height="50" relative="1" as="geometry">
            <mxPoint x="631.5" y="920" as="sourcePoint" />
            <mxPoint x="681.5" y="870" as="targetPoint" />
          </mxGeometry>
        </mxCell>
        <mxCell id="LImPPUrS2WQXpyz9ppYW-24" value="" style="endArrow=classic;html=1;rounded=0;" edge="1" parent="1">
          <mxGeometry width="50" height="50" relative="1" as="geometry">
            <mxPoint x="523" y="730" as="sourcePoint" />
            <mxPoint x="610" y="680" as="targetPoint" />
          </mxGeometry>
        </mxCell>
        <mxCell id="LImPPUrS2WQXpyz9ppYW-25" value="" style="endArrow=classic;html=1;rounded=0;entryX=1;entryY=0.75;entryDx=0;entryDy=0;" edge="1" parent="1" target="3L23cKrr_8VqjMYkY_dr-1">
          <mxGeometry width="50" height="50" relative="1" as="geometry">
            <mxPoint x="600" y="541" as="sourcePoint" />
            <mxPoint x="650" y="490" as="targetPoint" />
          </mxGeometry>
        </mxCell>
        <mxCell id="LImPPUrS2WQXpyz9ppYW-26" value="" style="endArrow=classic;html=1;rounded=0;entryX=0.846;entryY=-0.017;entryDx=0;entryDy=0;entryPerimeter=0;exitX=0;exitY=0.75;exitDx=0;exitDy=0;" edge="1" parent="1" source="LImPPUrS2WQXpyz9ppYW-8" target="WsKSaXJq3xfQDhQl-g9L-2">
          <mxGeometry width="50" height="50" relative="1" as="geometry">
            <mxPoint x="710" y="500" as="sourcePoint" />
            <mxPoint x="760" y="450" as="targetPoint" />
          </mxGeometry>
        </mxCell>
        <mxCell id="LImPPUrS2WQXpyz9ppYW-27" value="" style="endArrow=classic;html=1;rounded=0;exitX=0.5;exitY=1;exitDx=0;exitDy=0;entryX=0.5;entryY=0;entryDx=0;entryDy=0;" edge="1" parent="1" source="LImPPUrS2WQXpyz9ppYW-6" target="LImPPUrS2WQXpyz9ppYW-10">
          <mxGeometry width="50" height="50" relative="1" as="geometry">
            <mxPoint x="680" y="620" as="sourcePoint" />
            <mxPoint x="730" y="570" as="targetPoint" />
          </mxGeometry>
        </mxCell>
      </root>
    </mxGraphModel>
  </diagram>
</mxfile>
